<svg xmlns="http://www.w3.org/2000/svg" xmlns:xlink="http://www.w3.org/1999/xlink" width="84" zoomAndPan="magnify" viewBox="0 0 63 62.999997" height="84" preserveAspectRatio="xMidYMid meet" version="1.0"><defs><clipPath id="ebe3490bb8"><path d="M 23 5.164062 L 33 5.164062 L 33 45 L 23 45 Z M 23 5.164062 " clip-rule="nonzero"/></clipPath><clipPath id="953f21b4d5"><path d="M 33 5.164062 L 41 5.164062 L 41 44 L 33 44 Z M 33 5.164062 " clip-rule="nonzero"/></clipPath><clipPath id="ea83d8e4f7"><path d="M 0 42 L 63 42 L 63 57.664062 L 0 57.664062 Z M 0 42 " clip-rule="nonzero"/></clipPath><clipPath id="000c4d3987"><path d="M 28 51 L 35 51 L 35 57.664062 L 28 57.664062 Z M 28 51 " clip-rule="nonzero"/></clipPath></defs><rect x="-6.3" width="75.6" fill="#ffffff" y="-6.3" height="75.599996" fill-opacity="1"/><g clip-path="url(#ebe3490bb8)"><path fill="#2f4d6d" d="M 25.140625 13.1875 L 25.140625 11.257812 L 26.921875 10.296875 L 26.921875 12.230469 Z M 28.699219 13.21875 L 28.699219 11.273438 L 30.480469 10.316406 L 30.480469 12.261719 Z M 25.140625 17.066406 L 25.140625 15.132812 L 26.921875 14.175781 L 26.921875 16.109375 Z M 28.699219 17.09375 L 28.699219 15.152344 L 30.480469 14.191406 L 30.480469 16.136719 Z M 25.140625 20.941406 L 25.140625 19.007812 L 26.921875 18.050781 L 26.921875 19.984375 Z M 28.699219 20.96875 L 28.699219 19.027344 L 30.480469 18.070312 L 30.480469 20.011719 Z M 25.140625 24.816406 L 25.140625 22.886719 L 26.921875 21.929688 L 26.921875 23.859375 Z M 28.699219 24.847656 L 28.699219 22.902344 L 30.480469 21.945312 L 30.480469 23.890625 Z M 25.140625 28.695312 L 25.140625 26.761719 L 26.921875 25.804688 L 26.921875 27.738281 Z M 28.699219 28.722656 L 28.699219 26.78125 L 30.480469 25.824219 L 30.480469 27.765625 Z M 25.140625 32.570312 L 25.140625 30.636719 L 26.921875 29.679688 L 26.921875 31.613281 Z M 28.699219 32.601562 L 28.699219 30.65625 L 30.480469 29.699219 L 30.480469 31.640625 Z M 25.140625 36.445312 L 25.140625 34.515625 L 26.921875 33.558594 L 26.921875 35.488281 Z M 28.699219 36.476562 L 28.699219 34.53125 L 30.480469 33.574219 L 30.480469 35.519531 Z M 25.140625 40.324219 L 25.140625 38.390625 L 26.921875 37.433594 L 26.921875 39.367188 Z M 28.699219 40.351562 L 28.699219 38.410156 L 30.480469 37.453125 L 30.480469 39.394531 Z M 25.140625 43.972656 L 25.140625 42.265625 L 26.921875 41.308594 L 26.921875 42.972656 L 31.308594 40.503906 L 32.257812 41.035156 L 32.257812 5.484375 C 28.414062 7.550781 29.296875 7.078125 26.921875 8.355469 L 25.140625 9.3125 L 23.363281 10.269531 L 23.363281 44.972656 Z M 25.140625 43.972656 " fill-opacity="1" fill-rule="evenodd"/></g><g clip-path="url(#953f21b4d5)"><path fill="#3a6eb0" d="M 39.808594 18.414062 L 40.941406 18.109375 L 40.941406 10.847656 L 33.539062 5.164062 L 33.539062 41.757812 L 36.179688 43.242188 L 36.179688 21.585938 L 39.808594 20.613281 Z M 39.808594 18.414062 " fill-opacity="1" fill-rule="evenodd"/></g><path fill="#3a6eb0" d="M 53.738281 23.433594 L 53.738281 53.121094 L 54.59375 53.601562 L 54.59375 24.050781 Z M 47.761719 49.757812 L 47.761719 19.128906 L 46.90625 18.515625 L 46.90625 49.277344 Z M 48.613281 19.746094 L 48.613281 50.238281 L 49.46875 50.71875 L 49.46875 20.359375 Z M 50.324219 20.976562 L 50.324219 51.199219 L 51.175781 51.679688 L 51.175781 21.589844 Z M 52.03125 22.207031 L 52.03125 52.160156 L 52.886719 52.640625 L 52.886719 22.820312 Z M 52.03125 22.207031 " fill-opacity="1" fill-rule="evenodd"/><path fill="#2f4d6d" d="M 46.066406 48.804688 L 46.066406 17.910156 L 40.941406 19.285156 L 40.941406 21.480469 L 37.3125 22.453125 L 37.3125 43.878906 L 38.742188 44.683594 L 38.742188 42.875 L 44.636719 42.875 L 44.636719 48 Z M 46.066406 48.804688 " fill-opacity="1" fill-rule="evenodd"/><path fill="#3a6eb0" d="M 14.253906 20.199219 L 14.253906 50.097656 L 16.003906 49.109375 L 16.003906 47.953125 L 17.285156 48.390625 L 18.777344 47.550781 L 16.003906 46.601562 L 16.003906 45.140625 L 20.390625 46.644531 L 21.726562 45.894531 L 21.726562 45.753906 L 16.003906 43.789062 L 16.003906 42.328125 L 21.726562 44.292969 L 21.726562 42.941406 L 16.003906 40.976562 L 16.003906 39.515625 L 21.726562 41.480469 L 21.726562 40.128906 L 16.003906 38.164062 L 16.003906 36.703125 L 21.726562 38.667969 L 21.726562 37.316406 L 16.003906 35.355469 L 16.003906 33.890625 L 21.726562 35.855469 L 21.726562 34.507812 L 16.003906 32.542969 L 16.003906 31.082031 L 21.726562 33.042969 L 21.726562 31.695312 L 16.003906 29.730469 L 16.003906 28.269531 L 21.726562 30.234375 L 21.726562 28.882812 L 16.003906 26.917969 L 16.003906 25.457031 L 21.726562 27.421875 L 21.726562 26.070312 L 16.003906 24.105469 L 16.003906 22.644531 L 21.726562 24.609375 L 21.726562 22.765625 Z M 14.253906 20.199219 " fill-opacity="1" fill-rule="evenodd"/><path fill="#2f4d6d" d="M 12.9375 50.835938 L 12.9375 20.164062 L 8.027344 23.859375 L 8.027344 53.601562 Z M 12.9375 50.835938 " fill-opacity="1" fill-rule="evenodd"/><g clip-path="url(#ea83d8e4f7)"><path fill="#2f4d6d" d="M 31.308594 42.878906 L 39.511719 47.496094 L 39.511719 43.621094 L 43.863281 43.621094 L 43.863281 49.941406 L 54.429688 55.886719 L 68.414062 55.886719 L 68.414062 57.664062 L 49.914062 57.664062 L 31.308594 47.195312 L 12.703125 57.664062 L -5.796875 57.664062 L -5.796875 55.886719 L 8.191406 55.886719 Z M 31.308594 42.878906 " fill-opacity="1" fill-rule="evenodd"/></g><g clip-path="url(#000c4d3987)"><path fill="#3a6eb0" d="M 28.492188 51.480469 L 30.6875 51.480469 L 30.6875 53.675781 L 28.492188 53.675781 Z M 30.6875 54.921875 L 30.6875 57.117188 L 28.492188 57.117188 L 28.492188 54.921875 Z M 31.933594 51.480469 L 34.125 51.480469 L 34.125 53.675781 L 31.933594 53.675781 Z M 34.125 54.921875 L 34.125 57.117188 L 31.933594 57.117188 L 31.933594 54.921875 Z M 34.125 54.921875 " fill-opacity="1" fill-rule="evenodd"/></g></svg>