<svg xmlns="http://www.w3.org/2000/svg" xmlns:xlink="http://www.w3.org/1999/xlink" width="84" zoomAndPan="magnify" viewBox="0 0 63 62.999997" height="84" preserveAspectRatio="xMidYMid meet" version="1.0"><rect x="-6.3" width="75.6" fill="#ffffff" y="-6.3" height="75.599996" fill-opacity="1"/><path fill="#e8e5df" d="M 57.355469 34.167969 L 9.578125 34.167969 C 7.820312 34.167969 6.394531 32.734375 6.394531 30.964844 L 60.542969 30.964844 C 60.542969 32.734375 59.117188 34.167969 57.355469 34.167969 Z M 57.355469 34.167969 " fill-opacity="1" fill-rule="nonzero"/><path fill="#febe07" d="M 13.824219 32.035156 L 26.566406 32.035156 C 29.496094 32.035156 31.875 29.644531 31.875 26.695312 L 31.875 23.421875 C 31.875 18.152344 27.675781 10.679688 26.425781 10.679688 L 13.964844 10.679688 C 12.714844 10.679688 8.515625 18.152344 8.515625 23.421875 L 8.515625 26.695312 C 8.515625 29.644531 10.894531 32.035156 13.824219 32.035156 Z M 13.824219 32.035156 " fill-opacity="1" fill-rule="nonzero"/><path fill="#febe07" d="M 28.445312 2.4375 L 26.226562 3.550781 C 25.890625 3.722656 25.480469 3.625 25.253906 3.320312 L 23.847656 1.433594 C 23.5625 1.054688 23.007812 1.011719 22.675781 1.351562 L 20.828125 3.207031 C 20.492188 3.542969 19.941406 3.503906 19.65625 3.121094 L 18.398438 1.433594 C 18.113281 1.054688 17.558594 1.011719 17.226562 1.351562 L 15.070312 3.515625 C 14.871094 3.71875 14.578125 3.796875 14.304688 3.71875 L 11.082031 2.792969 C 10.417969 2.601562 9.855469 3.308594 10.1875 3.917969 L 13.824219 10.679688 L 26.566406 10.679688 L 29.511719 3.4375 C 29.789062 2.769531 29.089844 2.113281 28.445312 2.4375 Z M 28.445312 2.4375 " fill-opacity="1" fill-rule="nonzero"/><path fill="#e3a800" d="M 26.566406 32.035156 C 29.496094 32.035156 31.875 29.644531 31.875 26.695312 L 31.875 23.421875 C 31.875 18.152344 27.675781 10.679688 26.425781 10.679688 L 13.964844 10.679688 C 13.257812 10.679688 20.71875 11.136719 24.441406 17.085938 C 27.285156 21.625 26.566406 32.035156 26.566406 32.035156 Z M 26.566406 32.035156 " fill-opacity="1" fill-rule="nonzero"/><path fill="#e3a800" d="M 28.445312 2.4375 L 26.945312 3.191406 C 24.027344 6.132812 20.363281 8.234375 16.332031 9.246094 L 13.445312 9.972656 L 13.824219 10.679688 L 26.566406 10.679688 L 29.511719 3.4375 C 29.789062 2.769531 29.089844 2.113281 28.445312 2.4375 Z M 28.445312 2.4375 " fill-opacity="1" fill-rule="nonzero"/><path fill="#e3a800" d="M 28.691406 29.898438 L 15.949219 29.898438 C 13.015625 29.898438 10.640625 27.507812 10.640625 24.558594 L 10.640625 21.285156 C 10.640625 17.769531 12.507812 13.28125 14.125 10.679688 L 13.964844 10.679688 C 12.714844 10.679688 8.515625 18.152344 8.515625 23.421875 L 8.515625 26.695312 C 8.515625 29.644531 10.894531 32.035156 13.824219 32.035156 L 26.566406 32.035156 C 28.582031 32.035156 30.3125 30.890625 31.210938 29.230469 C 30.457031 29.644531 29.605469 29.898438 28.691406 29.898438 Z M 28.691406 29.898438 " fill-opacity="1" fill-rule="nonzero"/><path fill="#cbe6fe" d="M 35.058594 2.136719 L 45.675781 2.136719 L 45.675781 32.035156 L 35.058594 32.035156 Z M 35.058594 2.136719 " fill-opacity="1" fill-rule="nonzero"/><path fill="#a9c6eb" d="M 45.675781 14.949219 L 41.429688 19.21875 L 37.183594 23.492188 L 39.308594 23.492188 L 39.308594 32.035156 L 45.675781 32.035156 Z M 45.675781 14.949219 " fill-opacity="1" fill-rule="nonzero"/><path fill="#cbe6fe" d="M 29.007812 14.949219 L 25.503906 14.949219 L 25.503906 32.035156 L 35.058594 32.035156 L 35.058594 14.949219 Z M 29.007812 14.949219 " fill-opacity="1" fill-rule="nonzero"/><path fill="#a9c6eb" d="M 47.800781 26.695312 L 52.046875 26.695312 L 52.046875 32.035156 L 47.800781 32.035156 Z M 47.800781 26.695312 " fill-opacity="1" fill-rule="nonzero"/><path fill="#ffe5cf" d="M 59.167969 29.898438 C 58.058594 29.898438 57.042969 30.53125 56.546875 31.527344 L 56.296875 32.035156 L 53.109375 38.441406 L 45.675781 41.644531 C 45.675781 39.285156 43.777344 37.371094 41.429688 37.371094 L 26.144531 37.371094 C 20.203125 37.371094 14.410156 39.238281 9.578125 42.710938 L 9.578125 58.730469 L 34.640625 58.730469 C 39.773438 58.730469 44.796875 57.277344 49.148438 54.542969 C 55.726562 50.410156 60.25 43.664062 61.597656 35.984375 L 62.058594 33.359375 C 62.375 31.554688 60.992188 29.898438 59.167969 29.898438 Z M 59.167969 29.898438 " fill-opacity="1" fill-rule="nonzero"/><path fill="#cbe6fe" d="M 56.296875 23.492188 L 43.554688 23.492188 L 43.554688 32.035156 L 47.800781 32.035156 L 47.800781 26.695312 L 52.046875 26.695312 L 52.046875 32.035156 L 56.296875 32.035156 Z M 56.296875 23.492188 " fill-opacity="1" fill-rule="nonzero"/><path fill="#e3a800" d="M 58.417969 23.492188 L 49.925781 14.949219 L 45.675781 19.21875 L 41.429688 23.492188 Z M 58.417969 23.492188 " fill-opacity="1" fill-rule="nonzero"/><path fill="#a9c6eb" d="M 31.875 14.949219 L 35.058594 14.949219 L 35.058594 32.035156 L 31.875 32.035156 Z M 31.875 14.949219 " fill-opacity="1" fill-rule="nonzero"/><path fill="#f5dcc7" d="M 11.785156 41.289062 C 11.03125 41.734375 10.292969 42.199219 9.578125 42.710938 L 9.578125 58.730469 L 34.640625 58.730469 L 28.617188 58.167969 C 19.628906 57.332031 12.621094 50.164062 11.785156 41.289062 Z M 11.785156 41.289062 " fill-opacity="1" fill-rule="nonzero"/><path fill="#fefefe" d="M 22.320312 19.21875 L 22.320312 18.152344 C 22.320312 17.5625 21.84375 17.085938 21.257812 17.085938 L 20.195312 17.085938 L 20.195312 16.015625 L 18.074219 16.015625 L 18.074219 17.085938 L 17.011719 17.085938 C 16.421875 17.085938 15.949219 17.5625 15.949219 18.152344 L 15.949219 21.355469 C 15.949219 21.945312 16.421875 22.421875 17.011719 22.421875 L 20.195312 22.421875 L 20.195312 23.492188 L 15.949219 23.492188 L 15.949219 24.558594 C 15.949219 25.148438 16.421875 25.628906 17.011719 25.628906 L 18.074219 25.628906 L 18.074219 26.695312 L 20.195312 26.695312 L 20.195312 25.628906 L 21.257812 25.628906 C 21.84375 25.628906 22.320312 25.148438 22.320312 24.558594 L 22.320312 21.355469 C 22.320312 20.765625 21.84375 20.289062 21.257812 20.289062 L 18.074219 20.289062 L 18.074219 19.21875 Z M 22.320312 19.21875 " fill-opacity="1" fill-rule="nonzero"/><path fill="#f5dcc7" d="M 41.429688 48.050781 L 24.441406 48.050781 L 24.441406 45.914062 L 41.429688 45.914062 C 43.1875 45.914062 45.675781 43.410156 45.675781 41.644531 L 46.738281 42.710938 C 46.738281 45.65625 44.359375 48.050781 41.429688 48.050781 Z M 41.429688 48.050781 " fill-opacity="1" fill-rule="nonzero"/><path fill="#2b67b3" d="M 38.246094 5.339844 L 39.308594 5.339844 L 39.308594 7.472656 L 38.246094 7.472656 Z M 38.246094 5.339844 " fill-opacity="1" fill-rule="nonzero"/><path fill="#2b67b3" d="M 41.429688 5.339844 L 42.492188 5.339844 L 42.492188 7.472656 L 41.429688 7.472656 Z M 41.429688 5.339844 " fill-opacity="1" fill-rule="nonzero"/><path fill="#2b67b3" d="M 38.246094 9.609375 L 39.308594 9.609375 L 39.308594 11.746094 L 38.246094 11.746094 Z M 38.246094 9.609375 " fill-opacity="1" fill-rule="nonzero"/><path fill="#2b67b3" d="M 41.429688 9.609375 L 42.492188 9.609375 L 42.492188 11.746094 L 41.429688 11.746094 Z M 41.429688 9.609375 " fill-opacity="1" fill-rule="nonzero"/><path fill="#2b67b3" d="M 38.246094 13.882812 L 39.308594 13.882812 L 39.308594 16.015625 L 38.246094 16.015625 Z M 38.246094 13.882812 " fill-opacity="1" fill-rule="nonzero"/><path fill="#2b67b3" d="M 41.429688 13.882812 L 42.492188 13.882812 L 42.492188 16.015625 L 41.429688 16.015625 Z M 41.429688 13.882812 " fill-opacity="1" fill-rule="nonzero"/><path fill="#2b67b3" d="M 28.691406 18.152344 L 29.75 18.152344 L 29.75 20.289062 L 28.691406 20.289062 Z M 28.691406 18.152344 " fill-opacity="1" fill-rule="nonzero"/><path fill="#2b67b3" d="M 31.875 18.152344 L 32.9375 18.152344 L 32.9375 20.289062 L 31.875 20.289062 Z M 31.875 18.152344 " fill-opacity="1" fill-rule="nonzero"/><path fill="#2b67b3" d="M 28.691406 22.421875 L 29.75 22.421875 L 29.75 24.558594 L 28.691406 24.558594 Z M 28.691406 22.421875 " fill-opacity="1" fill-rule="nonzero"/><path fill="#2b67b3" d="M 31.875 22.421875 L 32.9375 22.421875 L 32.9375 24.558594 L 31.875 24.558594 Z M 31.875 22.421875 " fill-opacity="1" fill-rule="nonzero"/><path fill="#2b67b3" d="M 28.691406 26.695312 L 29.75 26.695312 L 29.75 28.832031 L 28.691406 28.832031 Z M 28.691406 26.695312 " fill-opacity="1" fill-rule="nonzero"/><path fill="#2b67b3" d="M 31.875 26.695312 L 32.9375 26.695312 L 32.9375 28.832031 L 31.875 28.832031 Z M 31.875 26.695312 " fill-opacity="1" fill-rule="nonzero"/><path fill="#2b67b3" d="M 38.246094 18.152344 L 39.308594 18.152344 L 39.308594 20.289062 L 38.246094 20.289062 Z M 38.246094 18.152344 " fill-opacity="1" fill-rule="nonzero"/><path fill="#2b67b3" d="M 41.429688 18.152344 L 42.492188 18.152344 L 42.492188 20.289062 L 41.429688 20.289062 Z M 41.429688 18.152344 " fill-opacity="1" fill-rule="nonzero"/><path fill="#febe07" d="M 54.171875 2.136719 L 56.296875 2.136719 L 56.296875 4.269531 L 54.171875 4.269531 Z M 54.171875 2.136719 " fill-opacity="1" fill-rule="nonzero"/><path fill="#febe07" d="M 56.296875 0 L 58.417969 0 L 58.417969 2.136719 L 56.296875 2.136719 Z M 56.296875 0 " fill-opacity="1" fill-rule="nonzero"/><path fill="#febe07" d="M 58.417969 2.136719 L 60.542969 2.136719 L 60.542969 4.269531 L 58.417969 4.269531 Z M 58.417969 2.136719 " fill-opacity="1" fill-rule="nonzero"/><path fill="#febe07" d="M 56.296875 4.269531 L 58.417969 4.269531 L 58.417969 6.40625 L 56.296875 6.40625 Z M 56.296875 4.269531 " fill-opacity="1" fill-rule="nonzero"/><path fill="#febe07" d="M 61.605469 7.472656 L 63.726562 7.472656 L 63.726562 9.609375 L 61.605469 9.609375 Z M 61.605469 7.472656 " fill-opacity="1" fill-rule="nonzero"/><path fill="#febe07" d="M 54.171875 10.679688 L 56.296875 10.679688 L 56.296875 12.8125 L 54.171875 12.8125 Z M 54.171875 10.679688 " fill-opacity="1" fill-rule="nonzero"/><path fill="#febe07" d="M 0.0234375 9.609375 L 2.144531 9.609375 L 2.144531 11.746094 L 0.0234375 11.746094 Z M 0.0234375 9.609375 " fill-opacity="1" fill-rule="nonzero"/><path fill="#febe07" d="M 2.144531 7.472656 L 4.269531 7.472656 L 4.269531 9.609375 L 2.144531 9.609375 Z M 2.144531 7.472656 " fill-opacity="1" fill-rule="nonzero"/><path fill="#febe07" d="M 4.269531 9.609375 L 6.394531 9.609375 L 6.394531 11.746094 L 4.269531 11.746094 Z M 4.269531 9.609375 " fill-opacity="1" fill-rule="nonzero"/><path fill="#febe07" d="M 2.144531 11.746094 L 4.269531 11.746094 L 4.269531 13.882812 L 2.144531 13.882812 Z M 2.144531 11.746094 " fill-opacity="1" fill-rule="nonzero"/><path fill="#febe07" d="M 0.0234375 18.152344 L 2.144531 18.152344 L 2.144531 20.289062 L 0.0234375 20.289062 Z M 0.0234375 18.152344 " fill-opacity="1" fill-rule="nonzero"/><path fill="#febe07" d="M 4.269531 0 L 6.394531 0 L 6.394531 2.136719 L 4.269531 2.136719 Z M 4.269531 0 " fill-opacity="1" fill-rule="nonzero"/><path fill="#2b67b3" d="M 8.515625 37.371094 L 2.144531 37.371094 C 1.558594 37.371094 1.085938 37.851562 1.085938 38.441406 L 1.085938 61.933594 C 1.085938 62.523438 1.558594 63 2.144531 63 L 8.515625 63 C 9.101562 63 9.578125 62.523438 9.578125 61.933594 L 9.578125 38.441406 C 9.578125 37.851562 9.101562 37.371094 8.515625 37.371094 Z M 8.515625 37.371094 " fill-opacity="1" fill-rule="nonzero"/><path fill="#fefefe" d="M 5.332031 44.847656 C 4.746094 44.847656 4.269531 44.367188 4.269531 43.78125 L 4.269531 42.710938 C 4.269531 42.121094 4.746094 41.644531 5.332031 41.644531 C 5.917969 41.644531 6.394531 42.121094 6.394531 42.710938 L 6.394531 43.78125 C 6.394531 44.367188 5.917969 44.847656 5.332031 44.847656 Z M 5.332031 44.847656 " fill-opacity="1" fill-rule="nonzero"/></svg>