<svg xmlns="http://www.w3.org/2000/svg" xmlns:xlink="http://www.w3.org/1999/xlink" width="84" zoomAndPan="magnify" viewBox="0 0 63 62.999997" height="84" preserveAspectRatio="xMidYMid meet" version="1.0"><rect x="-6.3" width="75.6" fill="#ffffff" y="-6.3" height="75.599996" fill-opacity="1"/><path fill="#c6d8fb" d="M 20.578125 39.050781 L 21.734375 43.34375 C 22.542969 46.15625 26.765625 45.03125 26.050781 42.195312 C 26.050781 42.195312 24.597656 36.8125 24.597656 36.8125 C 23.394531 37.09375 21.414062 37.839844 20.183594 37.582031 Z M 20.578125 39.050781 " fill-opacity="1" fill-rule="evenodd"/><path fill="#c6d8fb" d="M 24.609375 36.8125 C 29.003906 35.027344 34.539062 37.058594 38.105469 37.792969 C 37.898438 37.511719 37.738281 37.203125 37.652344 36.851562 L 33.257812 20.550781 C 33.160156 20.195312 33.136719 19.84375 33.183594 19.511719 C 31.734375 20.660156 26.664062 26.617188 21.980469 27.066406 C 22.851562 30.296875 23.726562 33.5625 24.609375 36.8125 Z M 24.609375 36.8125 " fill-opacity="1" fill-rule="evenodd"/><path fill="#428dff" d="M 14.15625 45.433594 C 13.675781 45.445312 13.417969 44.808594 13.785156 44.492188 L 20.207031 38.648438 C 20.722656 38.171875 21.472656 38.976562 20.945312 39.441406 C 20.945312 39.441406 14.523438 45.285156 14.523438 45.285156 C 14.414062 45.386719 14.277344 45.433594 14.15625 45.433594 Z M 14.15625 45.433594 " fill-opacity="1" fill-rule="nonzero"/><path fill="#428dff" d="M 39.792969 45.777344 C 39.632812 45.777344 39.460938 45.703125 39.359375 45.554688 L 32.9375 36.960938 C 32.753906 36.714844 32.816406 36.386719 33.050781 36.203125 C 33.296875 36.03125 33.628906 36.078125 33.8125 36.3125 L 40.234375 44.921875 C 40.492188 45.261719 40.222656 45.800781 39.792969 45.777344 Z M 39.792969 45.777344 " fill-opacity="1" fill-rule="nonzero"/><path fill="#428dff" d="M 40.332031 25.589844 C 39.792969 25.613281 39.582031 24.820312 40.074219 24.574219 L 47.515625 20.476562 C 48.132812 20.136719 48.671875 21.078125 48.046875 21.417969 C 48.046875 21.417969 40.601562 25.515625 40.601562 25.515625 C 40.515625 25.5625 40.417969 25.589844 40.332031 25.589844 Z M 40.332031 25.589844 " fill-opacity="1" fill-rule="nonzero"/><path fill="#428dff" d="M 24.511719 26.835938 C 24.378906 26.835938 24.230469 26.785156 24.117188 26.675781 L 16.109375 18.535156 C 15.605469 18.042969 16.40625 17.261719 16.886719 17.777344 C 16.886719 17.777344 24.894531 25.917969 24.894531 25.917969 C 25.238281 26.238281 24.96875 26.847656 24.511719 26.835938 Z M 24.511719 26.835938 " fill-opacity="1" fill-rule="nonzero"/><path fill="#428dff" d="M 8.386719 58.445312 C 3.785156 58.445312 0.03125 54.714844 0.03125 50.140625 C 0.449219 39.136719 16.320312 39.136719 16.738281 50.140625 C 16.738281 54.714844 13 58.445312 8.386719 58.445312 Z M 8.386719 42.914062 C 4.375 42.914062 1.117188 46.15625 1.117188 50.140625 C 1.460938 59.703125 15.3125 59.703125 15.65625 50.140625 C 15.65625 46.15625 12.394531 42.914062 8.386719 42.914062 Z M 8.386719 42.914062 " fill-opacity="1" fill-rule="nonzero"/><path fill="#428dff" d="M 8.386719 54.519531 C 7.832031 54.507812 7.820312 53.957031 7.84375 53.539062 L 6.945312 53.539062 C 6.234375 53.539062 6.234375 52.464844 6.945312 52.464844 C 7.734375 52.402344 9.234375 52.792969 9.269531 51.570312 C 9.269531 51.082031 8.867188 50.679688 8.375 50.679688 C 6.097656 50.667969 5.667969 47.425781 7.832031 46.816406 L 7.832031 46.300781 C 7.832031 45.59375 8.914062 45.59375 8.914062 46.300781 L 8.914062 46.742188 L 9.8125 46.742188 C 10.527344 46.742188 10.527344 47.816406 9.8125 47.816406 C 9.023438 47.878906 7.523438 47.5 7.488281 48.710938 C 7.488281 49.199219 7.894531 49.601562 8.386719 49.601562 C 10.660156 49.617188 11.09375 52.855469 8.925781 53.46875 C 8.953125 53.882812 8.988281 54.507812 8.386719 54.519531 Z M 8.386719 54.519531 " fill-opacity="1" fill-rule="nonzero"/><path fill="#428dff" d="M 23.898438 45.53125 C 22.667969 45.53125 21.546875 44.710938 21.203125 43.476562 L 19.652344 37.71875 C 19.578125 37.425781 19.753906 37.132812 20.035156 37.058594 C 20.332031 36.984375 20.625 37.15625 20.699219 37.4375 L 22.25 43.195312 C 22.851562 45.324219 26.0625 44.480469 25.523438 42.328125 L 23.652344 35.371094 C 23.910156 35.273438 24.425781 35.113281 24.699219 35.066406 L 26.578125 42.046875 C 27.070312 43.769531 25.679688 45.554688 23.898438 45.53125 Z M 23.898438 45.53125 " fill-opacity="1" fill-rule="nonzero"/><path fill="#428dff" d="M 20.859375 38.171875 C 14.339844 38.097656 13.121094 28.902344 19.40625 27.167969 C 19.40625 27.167969 21.832031 26.519531 21.832031 26.519531 C 22.113281 26.445312 22.421875 26.617188 22.496094 26.898438 L 25.128906 36.667969 C 25.203125 36.960938 25.03125 37.253906 24.746094 37.328125 L 22.324219 37.976562 C 21.84375 38.109375 21.351562 38.171875 20.859375 38.171875 Z M 22.1875 37.449219 Z M 21.585938 27.703125 L 19.691406 28.207031 C 17.316406 28.78125 15.792969 31.398438 16.480469 33.730469 C 17.058594 36.09375 19.703125 37.609375 22.039062 36.921875 C 22.039062 36.921875 23.933594 36.421875 23.933594 36.421875 Z M 21.585938 27.703125 " fill-opacity="1" fill-rule="nonzero"/><path fill="#428dff" d="M 38.105469 38.328125 C 34.132812 37.65625 29.839844 35.542969 24.796875 37.328125 C 24.511719 37.4375 24.15625 37.265625 24.082031 36.960938 L 21.449219 27.191406 C 21.414062 27.042969 21.4375 26.886719 21.511719 26.761719 C 21.597656 26.640625 21.71875 26.542969 21.878906 26.519531 C 26.027344 25.796875 29.089844 22.703125 31.117188 20.648438 C 31.957031 19.941406 32.925781 18.386719 33.628906 19.195312 C 33.800781 19.4375 33.726562 19.78125 33.480469 19.941406 C 30.539062 22.457031 27.90625 26.199219 22.65625 27.460938 L 24.992188 36.117188 C 29.101562 34.855469 33.417969 36.042969 36.050781 36.765625 C 36.9375 37.007812 37.710938 37.21875 38.15625 37.253906 C 38.449219 37.277344 38.683594 37.535156 38.660156 37.828125 C 38.636719 38.109375 38.390625 38.328125 38.105469 38.328125 Z M 38.105469 38.328125 " fill-opacity="1" fill-rule="nonzero"/><path fill="#428dff" d="M 40.382812 39.46875 C 38.894531 39.46875 37.527344 38.476562 37.121094 36.984375 L 32.730469 20.671875 C 31.695312 16.371094 37.984375 14.695312 39.25 18.9375 C 39.25 18.9375 43.640625 35.234375 43.640625 35.234375 C 44.230469 37.328125 42.558594 39.503906 40.382812 39.46875 Z M 35.988281 17.53125 C 34.515625 17.519531 33.382812 18.972656 33.777344 20.390625 L 38.167969 36.691406 C 39.003906 39.566406 43.308594 38.414062 42.582031 35.515625 C 42.582031 35.515625 38.191406 19.21875 38.191406 19.21875 C 37.921875 18.203125 37 17.53125 35.988281 17.53125 Z M 35.25 17.089844 Z M 35.25 17.089844 " fill-opacity="1" fill-rule="nonzero"/><path fill="#428dff" d="M 10.945312 20.929688 C 6.269531 20.929688 2.457031 17.152344 2.457031 12.492188 C 2.886719 1.316406 19 1.328125 19.421875 12.492188 C 19.433594 17.152344 15.632812 20.929688 10.945312 20.929688 Z M 10.945312 5.144531 C 6.859375 5.144531 3.550781 8.445312 3.550781 12.492188 C 3.894531 22.226562 17.992188 22.226562 18.351562 12.492188 C 18.351562 8.445312 15.027344 5.144531 10.945312 5.144531 Z M 10.945312 5.144531 " fill-opacity="1" fill-rule="nonzero"/><path fill="#428dff" d="M 10.945312 20.929688 C 8.777344 20.929688 6.710938 20.109375 5.125 18.632812 C 4.953125 18.460938 4.902344 18.203125 5.015625 17.984375 C 5.691406 16.710938 6.773438 15.683594 8.078125 15.074219 C 5.828125 12.75 7.671875 8.554688 10.945312 8.652344 C 14.214844 8.554688 16.050781 12.75 13.796875 15.074219 C 15.089844 15.683594 16.183594 16.710938 16.859375 17.984375 C 16.972656 18.203125 16.933594 18.460938 16.75 18.632812 C 15.1875 20.125 13.121094 20.929688 10.945312 20.929688 Z M 6.195312 18.140625 C 8.828125 20.417969 13.058594 20.417969 15.691406 18.140625 C 14.980469 17.015625 13.871094 16.171875 12.605469 15.78125 C 12.175781 15.660156 12.089844 15.046875 12.46875 14.816406 C 13.257812 14.304688 13.722656 13.445312 13.722656 12.519531 C 13.625 8.886719 8.273438 8.886719 8.175781 12.519531 C 8.175781 13.445312 8.644531 14.304688 9.429688 14.816406 C 9.8125 15.046875 9.726562 15.671875 9.296875 15.78125 C 8.015625 16.160156 6.910156 17.015625 6.195312 18.140625 Z M 6.195312 18.140625 " fill-opacity="1" fill-rule="nonzero"/><path fill="#428dff" d="M 44.515625 60.019531 C 39.839844 60.019531 36.027344 56.242188 36.027344 51.585938 C 36.457031 40.410156 52.574219 40.421875 52.992188 51.585938 C 53.003906 56.230469 49.203125 60.019531 44.515625 60.019531 Z M 44.515625 44.234375 C 40.429688 44.234375 37.121094 47.535156 37.121094 51.585938 C 37.464844 61.316406 51.5625 61.316406 51.921875 51.585938 C 51.921875 47.523438 48.597656 44.234375 44.515625 44.234375 Z M 44.515625 44.234375 " fill-opacity="1" fill-rule="nonzero"/><path fill="#428dff" d="M 44.515625 60.019531 C 42.351562 60.019531 40.285156 59.203125 38.695312 57.722656 C 38.523438 57.550781 38.476562 57.292969 38.585938 57.074219 C 39.261719 55.800781 40.34375 54.777344 41.648438 54.164062 C 39.398438 51.839844 41.242188 47.648438 44.503906 47.746094 C 47.773438 47.648438 49.621094 51.839844 47.367188 54.164062 C 48.671875 54.777344 49.753906 55.800781 50.433594 57.074219 C 50.542969 57.292969 50.503906 57.550781 50.320312 57.722656 C 48.757812 59.203125 46.691406 60.019531 44.515625 60.019531 Z M 39.765625 57.222656 C 42.398438 59.496094 46.628906 59.496094 49.261719 57.222656 C 48.550781 56.097656 47.453125 55.253906 46.175781 54.859375 C 45.746094 54.738281 45.660156 54.128906 46.039062 53.894531 C 46.828125 53.382812 47.296875 52.527344 47.296875 51.597656 C 47.195312 47.964844 41.84375 47.953125 41.746094 51.597656 C 41.746094 52.527344 42.214844 53.382812 43 53.894531 C 43.382812 54.128906 43.296875 54.75 42.867188 54.859375 C 41.585938 55.253906 40.480469 56.097656 39.765625 57.222656 Z M 39.765625 57.222656 " fill-opacity="1" fill-rule="nonzero"/><path fill="#428dff" d="M 54.613281 25.492188 C 50.015625 25.492188 46.261719 21.761719 46.261719 17.1875 C 46.679688 6.183594 62.550781 6.183594 62.96875 17.1875 C 62.96875 21.761719 59.214844 25.492188 54.613281 25.492188 Z M 54.613281 9.960938 C 50.605469 9.960938 47.34375 13.203125 47.34375 17.1875 C 47.6875 26.75 61.539062 26.75 61.882812 17.1875 C 61.871094 13.203125 58.613281 9.960938 54.613281 9.960938 Z M 54.613281 9.960938 " fill-opacity="1" fill-rule="nonzero"/><path fill="#428dff" d="M 54.613281 21.566406 C 54.0625 21.554688 54.035156 21.003906 54.074219 20.585938 L 53.175781 20.585938 C 52.460938 20.585938 52.460938 19.511719 53.175781 19.511719 C 53.960938 19.449219 55.464844 19.84375 55.5 18.617188 C 55.5 18.128906 55.09375 17.726562 54.601562 17.726562 C 52.328125 17.714844 51.894531 14.472656 54.0625 13.863281 L 54.0625 13.347656 C 54.0625 12.640625 55.144531 12.640625 55.144531 13.347656 C 55.144531 13.347656 55.144531 13.789062 55.144531 13.789062 L 56.042969 13.789062 C 56.753906 13.789062 56.753906 14.867188 56.042969 14.867188 C 55.253906 14.925781 53.753906 14.535156 53.714844 15.757812 C 53.714844 16.246094 54.121094 16.652344 54.613281 16.652344 C 56.890625 16.664062 57.320312 19.902344 55.15625 20.515625 C 55.167969 20.929688 55.203125 21.554688 54.613281 21.566406 Z M 54.613281 21.566406 " fill-opacity="1" fill-rule="nonzero"/></svg>